<svg xmlns="http://www.w3.org/2000/svg" width="1400" height="420" viewBox="0 0 1400 420" role="img" aria-labelledby="title desc">
  <title id="title">Cros Intelligence Center</title>
  <desc id="desc">Local-first OSINT and defensive Windows workspace</desc>
  <defs>
    <linearGradient id="bg" x1="0" y1="0" x2="1" y2="1"><stop stop-color="#080a13"/><stop offset=".55" stop-color="#111329"/><stop offset="1" stop-color="#07151c"/></linearGradient>
    <linearGradient id="line" x1="0" y1="0" x2="1" y2="0"><stop stop-color="#8566ff"/><stop offset="1" stop-color="#27d7e7"/></linearGradient>
    <radialGradient id="glow"><stop stop-color="#8566ff" stop-opacity=".42"/><stop offset="1" stop-color="#8566ff" stop-opacity="0"/></radialGradient>
    <filter id="soft"><feGaussianBlur stdDeviation="18"/></filter>
  </defs>
  <rect width="1400" height="420" rx="32" fill="url(#bg)"/>
  <circle cx="1110" cy="210" r="190" fill="url(#glow)" filter="url(#soft)"/>
  <g opacity=".28" stroke="#7c87ad" fill="none">
    <circle cx="1110" cy="210" r="138"/><circle cx="1110" cy="210" r="100"/><circle cx="1110" cy="210" r="62"/>
    <path d="M860 210h500M1110 28v364" stroke-dasharray="5 12"/>
  </g>
  <g fill="#9ca9ff" opacity=".8"><circle cx="1110" cy="48" r="4"/><circle cx="1286" cy="156" r="5"/><circle cx="978" cy="322" r="4"/><circle cx="1185" cy="341" r="3"/></g>
  <rect x="1018" y="118" width="184" height="184" rx="52" fill="#12152b" stroke="url(#line)" stroke-width="5"/>
  <path d="M1061 185v-22h22M1137 163h22v22M1159 235v22h-22M1083 257h-22v-22" fill="none" stroke="#eef0ff" stroke-width="10" stroke-linecap="round"/>
  <text x="1110" y="231" text-anchor="middle" fill="#fff" font-family="Segoe UI,Arial,sans-serif" font-size="72" font-weight="800">C</text>
  <rect x="72" y="76" width="86" height="6" rx="3" fill="url(#line)"/>
  <text x="72" y="166" fill="#fff" font-family="Segoe UI,Arial,sans-serif" font-size="64" font-weight="800" letter-spacing="-2">Cros Intelligence Center</text>
  <text x="74" y="218" fill="#a9aec4" font-family="Segoe UI,Arial,sans-serif" font-size="24">One console. Every public signal. Local-first by design.</text>
  <g font-family="Consolas,monospace" font-size="15" font-weight="700" letter-spacing="2">
    <rect x="72" y="272" width="170" height="42" rx="10" fill="#8566ff" fill-opacity=".12" stroke="#8566ff" stroke-opacity=".55"/><text x="157" y="299" text-anchor="middle" fill="#cfc5ff">92 WORKFLOWS</text>
    <rect x="256" y="272" width="174" height="42" rx="10" fill="#27d7e7" fill-opacity=".1" stroke="#27d7e7" stroke-opacity=".5"/><text x="343" y="299" text-anchor="middle" fill="#aef6ff">WINDOWS APP</text>
    <rect x="444" y="272" width="172" height="42" rx="10" fill="#4dcc8b" fill-opacity=".1" stroke="#4dcc8b" stroke-opacity=".5"/><text x="530" y="299" text-anchor="middle" fill="#b7f5d5">LOCAL-FIRST</text>
  </g>
  <path d="M0 390H1400" stroke="url(#line)" stroke-width="3" opacity=".8"/>
</svg>
